<?xml version="1.0" standalone="no"?>
<!DOCTYPE svg PUBLIC "-//W3C//DTD SVG 20010904//EN"
 "http://www.w3.org/TR/2001/REC-SVG-20010904/DTD/svg10.dtd">
<svg version="1.0" xmlns="http://www.w3.org/2000/svg"
 width="640.000000pt" height="640.000000pt" viewBox="0 0 640.000000 640.000000"
 preserveAspectRatio="xMidYMid meet">
<metadata>
Created by potrace 1.14, written by Peter Selinger 2001-2017
</metadata>
<g transform="translate(0.000000,640.000000) scale(0.100000,-0.100000)"
fill="#000000" stroke="none">
<path d="M4140 5990 c-273 -58 -558 -239 -727 -461 -109 -142 -202 -339 -239
-504 -12 -52 -18 -123 -18 -200 l-1 -120 95 1 c342 3 708 268 900 652 97 194
140 389 132 605 -2 44 -3 47 -29 46 -16 0 -66 -9 -113 -19z"/>
<path d="M4020 4625 c-116 -19 -257 -62 -472 -146 -100 -39 -217 -80 -261 -91
-117 -30 -164 -19 -497 110 -253 99 -327 116 -510 116 -113 0 -177 -4 -238
-17 -633 -138 -1061 -652 -1152 -1387 -13 -110 -13 -454 1 -578 45 -409 169
-827 359 -1217 74 -151 163 -298 281 -466 285 -406 490 -581 728 -620 129 -22
284 12 516 112 229 98 415 132 602 110 138 -16 197 -33 370 -107 222 -93 282
-108 433 -108 108 0 136 4 205 27 208 69 392 246 644 622 128 191 205 326 282
495 56 121 129 318 129 345 0 8 -36 33 -80 56 -168 90 -353 256 -454 407 -142
215 -207 435 -207 707 0 210 38 378 123 550 84 167 238 350 391 464 51 37 84
68 80 75 -20 35 -110 139 -164 192 -167 159 -353 260 -593 318 -179 45 -360
55 -516 31z"/>
</g>
</svg>
